<!DOCTYPE svg PUBLIC "-//W3C//DTD SVG 1.1//EN" "http://www.w3.org/Graphics/SVG/1.1/DTD/svg11.dtd">
<!-- Uploaded to: SVG Repo, www.svgrepo.com, Transformed by: SVG Repo Mixer Tools -->
<svg fill="#ffffff" height="800px" width="800px" version="1.1" id="Layer_1" xmlns="http://www.w3.org/2000/svg" xmlns:xlink="http://www.w3.org/1999/xlink" viewBox="0 0 511.997 511.997" xml:space="preserve" stroke="#ffffff">
<g id="SVGRepo_bgCarrier" stroke-width="0"/>
<g id="SVGRepo_tracerCarrier" stroke-linecap="round" stroke-linejoin="round"/>
<g id="SVGRepo_iconCarrier"> <g transform="translate(1 1)"> <g> <g> <path d="M442.732,41.663h-86.357c-0.022,0-0.043,0.002-0.065,0.002h-0.2C348.262,16.179,305.552-1,255.003-1 s-93.26,17.179-101.106,42.665h-0.2c-0.022,0-0.043-0.002-0.065-0.002H67.265c-14.134,0-25.6,11.466-25.6,25.6v418.133 c0,14.14,11.464,25.6,25.6,25.6h375.467c14.142,0,25.6-11.458,25.6-25.6V67.263C468.332,53.127,456.872,41.663,442.732,41.663z M153.663,58.732c2.371,0.009,4.644,1.014,6.258,2.773l44.118,48.129l-17.76,40.029l-45.465-90.931H153.663z M350.085,61.503 c1.614-1.758,3.887-2.762,6.257-2.771h12.849l-45.466,90.931l-17.76-40.029L350.085,61.503z M255.003,16.067 c44.932,0,80.979,15.214,84.966,31.208l-50.361,54.945c0,0-0.001,0.001-0.001,0.001l-28.323,30.898 c-3.383,3.677-9.18,3.677-12.563-0.001l-28.323-30.897c0,0-0.001-0.001-0.001-0.001l-50.361-54.945 C174.024,31.281,210.07,16.067,255.003,16.067z M451.265,485.397c0,4.716-3.817,8.533-8.533,8.533H67.265 c-4.712,0-8.533-3.82-8.533-8.533V67.263c0-4.708,3.825-8.533,8.533-8.533h54.467l57.376,114.751 c3.226,6.453,12.507,6.239,15.432-0.355l22.081-49.767l19.508,21.282c0.007,0.008,0.014,0.015,0.021,0.022l12.561,13.703 c3.382,3.69,9.199,3.69,12.581,0l12.561-13.703c0.007-0.007,0.014-0.014,0.021-0.022l19.509-21.282l22.081,49.767 c2.926,6.594,12.206,6.808,15.432,0.355L388.273,58.73h54.459c4.713,0,8.533,3.822,8.533,8.533V485.397z"/> <circle cx="255.003" cy="203.8" r="8.533"/> <circle cx="255.003" cy="263.533" r="8.533"/> <circle cx="255.003" cy="323.267" r="8.533"/> <circle cx="255.003" cy="383" r="8.533"/> <circle cx="255.003" cy="442.733" r="8.533"/> <path d="M408.603,212.336h-68.267c-4.713,0-8.533,3.82-8.533,8.533v85.333c0,4.713,3.82,8.533,8.533,8.533h68.267 c4.713,0,8.533-3.82,8.533-8.533v-85.333C417.136,216.156,413.315,212.336,408.603,212.336z M400.069,297.669h-51.2v-68.267h51.2 V297.669z"/> </g> </g> </g> </g>
</svg>